<svg width="32" height="32" viewBox="0 0 32 32" fill="none" xmlns="http://www.w3.org/2000/svg">
<path d="M17.1499 16.0895C17.1264 16.0661 17.1132 16.0342 17.1132 16.001C17.1132 15.9678 17.1264 15.936 17.1499 15.9125L21.7813 11.2817C22.0742 10.9885 22.0738 10.5133 21.7806 10.2205C21.4873 9.92767 21.0122 9.92801 20.7194 10.2213L16.0885 14.8501C16.065 14.8736 16.0332 14.8868 16 14.8868C15.9667 14.8868 15.9349 14.8736 15.9115 14.8501L11.2806 10.2213C10.9877 9.92828 10.5128 9.92817 10.2198 10.221C9.92685 10.5138 9.92673 10.9887 10.2196 11.2817L14.85 15.9125C14.8735 15.936 14.8867 15.9678 14.8867 16.001C14.8867 16.0342 14.8735 16.0661 14.85 16.0895L10.2196 20.7208C10.0301 20.9103 9.9562 21.1865 10.0256 21.4453C10.095 21.7042 10.2973 21.9063 10.5561 21.9756C10.815 22.0449 11.0911 21.9708 11.2806 21.7813L15.9115 17.15C15.9349 17.1265 15.9667 17.1132 16 17.1132C16.0332 17.1132 16.065 17.1265 16.0885 17.15L20.7194 21.7813C21.0122 22.0743 21.4871 22.0744 21.7801 21.7815C22.0731 21.4887 22.0732 21.0138 21.7803 20.7208L17.1499 16.0895Z" fill="#1F1F1F"/>
</svg>
