<svg width="16" height="16" viewBox="0 0 16 16" fill="none" xmlns="http://www.w3.org/2000/svg">
<path fill-rule="evenodd" clip-rule="evenodd" d="M2.14415 7.99996C2.52925 8.53106 3.3185 9.5318 4.35779 10.4031C5.43539 11.3065 6.69721 12 8 12C9.30279 12 10.5646 11.3065 11.6422 10.4031C12.6815 9.5318 13.4708 8.53106 13.8558 7.99996C13.4708 7.46886 12.6815 6.46812 11.6422 5.59682C10.5646 4.69339 9.30279 3.99996 8 3.99996C6.69721 3.99996 5.43539 4.69339 4.35779 5.59682C3.3185 6.46812 2.52925 7.46886 2.14415 7.99996ZM3.50118 4.57506C4.67566 3.59041 6.23752 2.66663 8 2.66663C9.76248 2.66663 11.3243 3.59041 12.4988 4.57506C13.6847 5.56925 14.5621 6.69805 14.9676 7.26196C15.2865 7.70554 15.2865 8.29438 14.9676 8.73796C14.5621 9.30187 13.6847 10.4307 12.4988 11.4249C11.3243 12.4095 9.76248 13.3333 8 13.3333C6.23752 13.3333 4.67566 12.4095 3.50118 11.4249C2.31531 10.4307 1.43787 9.30187 1.03245 8.73796C0.713539 8.29438 0.713538 7.70554 1.03245 7.26196C1.43787 6.69805 2.31531 5.56925 3.50118 4.57506Z" fill="#64748B"/>
<path fill-rule="evenodd" clip-rule="evenodd" d="M8 9.33329C8.73638 9.33329 9.33333 8.73634 9.33333 7.99996C9.33333 7.26358 8.73638 6.66663 8 6.66663C7.26362 6.66663 6.66667 7.26358 6.66667 7.99996C6.66667 8.73634 7.26362 9.33329 8 9.33329ZM8 10.6666C9.47276 10.6666 10.6667 9.47272 10.6667 7.99996C10.6667 6.5272 9.47276 5.33329 8 5.33329C6.52724 5.33329 5.33333 6.5272 5.33333 7.99996C5.33333 9.47272 6.52724 10.6666 8 10.6666Z" fill="#64748B"/>
</svg>
