<svg width="844" height="54" viewBox="0 0 844 54" fill="none" xmlns="http://www.w3.org/2000/svg">
<path d="M9.38012 18.4342L15.4001 14.6542L12.0398 8.32101H43.642L27.846 38.1188L24.4858 31.7746L18.4659 35.5657L27.846 53.25L55.6818 0.75H0L9.38012 18.4342Z" fill="url(#paint0_linear_23_331)"/>
<path d="M9.38012 18.4342L15.4001 14.6542L12.0398 8.32101H43.642L27.846 38.1188L24.4858 31.7746L18.4659 35.5657L27.846 53.25L55.6818 0.75H0L9.38012 18.4342Z" fill="url(#paint1_linear_23_331)"/>
<path d="M74.6918 38.95C73.2918 38.95 71.9768 38.705 70.7468 38.215C69.5268 37.715 68.4518 36.985 67.5218 36.025C66.6018 35.065 65.8818 33.89 65.3618 32.5C64.8418 31.1 64.5818 29.5 64.5818 27.7C64.5818 25.34 65.0218 23.325 65.9018 21.655C66.7818 19.975 67.9868 18.69 69.5168 17.8C71.0468 16.9 72.7718 16.45 74.6918 16.45C77.3518 16.45 79.4568 17.07 81.0068 18.31C82.5668 19.54 83.6218 21.27 84.1718 23.5L80.4818 24.085C80.0718 22.805 79.4018 21.785 78.4718 21.025C77.5418 20.255 76.3568 19.87 74.9168 19.87C73.4668 19.85 72.2618 20.165 71.3018 20.815C70.3418 21.465 69.6168 22.38 69.1268 23.56C68.6468 24.74 68.4068 26.12 68.4068 27.7C68.4068 29.28 68.6468 30.655 69.1268 31.825C69.6068 32.985 70.3268 33.89 71.2868 34.54C72.2568 35.19 73.4668 35.525 74.9168 35.545C76.0068 35.555 76.9618 35.36 77.7818 34.96C78.6018 34.55 79.2718 33.935 79.7918 33.115C80.3118 32.285 80.6618 31.25 80.8418 30.01H77.0318V27.175H84.6818C84.7018 27.335 84.7168 27.57 84.7268 27.88C84.7368 28.19 84.7418 28.375 84.7418 28.435C84.7418 30.475 84.3368 32.29 83.5268 33.88C82.7268 35.46 81.5768 36.7 80.0768 37.6C78.5768 38.5 76.7818 38.95 74.6918 38.95ZM95.1195 38.95C93.4795 38.95 92.0395 38.595 90.7995 37.885C89.5595 37.175 88.5895 36.19 87.8895 34.93C87.1995 33.67 86.8545 32.22 86.8545 30.58C86.8545 28.81 87.1945 27.275 87.8745 25.975C88.5545 24.665 89.4995 23.65 90.7095 22.93C91.9195 22.21 93.3195 21.85 94.9095 21.85C96.5895 21.85 98.0145 22.245 99.1845 23.035C100.364 23.815 101.239 24.92 101.809 26.35C102.379 27.78 102.594 29.465 102.454 31.405H98.8695V30.085C98.8595 28.325 98.5495 27.04 97.9395 26.23C97.3295 25.42 96.3695 25.015 95.0595 25.015C93.5795 25.015 92.4795 25.475 91.7595 26.395C91.0395 27.305 90.6795 28.64 90.6795 30.4C90.6795 32.04 91.0395 33.31 91.7595 34.21C92.4795 35.11 93.5295 35.56 94.9095 35.56C95.7995 35.56 96.5645 35.365 97.2045 34.975C97.8545 34.575 98.3545 34 98.7045 33.25L102.274 34.33C101.654 35.79 100.694 36.925 99.3945 37.735C98.1045 38.545 96.6795 38.95 95.1195 38.95ZM89.5395 31.405V28.675H100.684V31.405H89.5395ZM116.567 38.5V30.7C116.567 30.19 116.532 29.625 116.462 29.005C116.392 28.385 116.227 27.79 115.967 27.22C115.717 26.64 115.337 26.165 114.827 25.795C114.327 25.425 113.647 25.24 112.787 25.24C112.327 25.24 111.872 25.315 111.422 25.465C110.972 25.615 110.562 25.875 110.192 26.245C109.832 26.605 109.542 27.105 109.322 27.745C109.102 28.375 108.992 29.185 108.992 30.175L106.847 29.26C106.847 27.88 107.112 26.63 107.642 25.51C108.182 24.39 108.972 23.5 110.012 22.84C111.052 22.17 112.332 21.835 113.852 21.835C115.052 21.835 116.042 22.035 116.822 22.435C117.602 22.835 118.222 23.345 118.682 23.965C119.142 24.585 119.482 25.245 119.702 25.945C119.922 26.645 120.062 27.31 120.122 27.94C120.192 28.56 120.227 29.065 120.227 29.455V38.5H116.567ZM105.332 38.5V22.3H108.557V27.325H108.992V38.5H105.332ZM124.441 19.84V16.525H128.056V19.84H124.441ZM124.441 38.5V22.3H128.056V38.5H124.441ZM130.749 38.5L136.674 30.31L130.869 22.3H135.129L138.774 27.475L142.359 22.3H146.619L140.814 30.31L146.769 38.5H142.509L138.774 33.145L135.009 38.5H130.749ZM153.667 38.5L160.477 16.9H165.772L172.582 38.5H168.862L162.682 19.12H163.492L157.387 38.5H153.667ZM157.462 33.82V30.445H168.802V33.82H157.462ZM181.369 38.965C180.169 38.965 179.179 38.765 178.399 38.365C177.619 37.965 176.999 37.455 176.539 36.835C176.079 36.215 175.739 35.555 175.519 34.855C175.299 34.155 175.154 33.495 175.084 32.875C175.024 32.245 174.994 31.735 174.994 31.345V22.3H178.654V30.1C178.654 30.6 178.689 31.165 178.759 31.795C178.829 32.415 178.989 33.015 179.239 33.595C179.499 34.165 179.879 34.635 180.379 35.005C180.889 35.375 181.574 35.56 182.434 35.56C182.894 35.56 183.349 35.485 183.799 35.335C184.249 35.185 184.654 34.93 185.014 34.57C185.384 34.2 185.679 33.695 185.899 33.055C186.119 32.415 186.229 31.605 186.229 30.625L188.374 31.54C188.374 32.92 188.104 34.17 187.564 35.29C187.034 36.41 186.249 37.305 185.209 37.975C184.169 38.635 182.889 38.965 181.369 38.965ZM186.664 38.5V33.475H186.229V22.3H189.859V38.5H186.664ZM201.108 38.95C199.438 38.95 198.013 38.58 196.833 37.84C195.653 37.09 194.748 36.07 194.118 34.78C193.498 33.49 193.183 32.03 193.173 30.4C193.183 28.74 193.508 27.27 194.148 25.99C194.798 24.7 195.718 23.69 196.908 22.96C198.098 22.22 199.513 21.85 201.153 21.85C202.993 21.85 204.548 22.315 205.818 23.245C207.098 24.165 207.933 25.425 208.323 27.025L204.723 28C204.443 27.13 203.978 26.455 203.328 25.975C202.678 25.485 201.938 25.24 201.108 25.24C200.168 25.24 199.393 25.465 198.783 25.915C198.173 26.355 197.723 26.965 197.433 27.745C197.143 28.525 196.998 29.41 196.998 30.4C196.998 31.94 197.343 33.185 198.033 34.135C198.723 35.085 199.748 35.56 201.108 35.56C202.068 35.56 202.823 35.34 203.373 34.9C203.933 34.46 204.353 33.825 204.633 32.995L208.323 33.82C207.823 35.47 206.948 36.74 205.698 37.63C204.448 38.51 202.918 38.95 201.108 38.95ZM220.824 38.5C219.754 38.7 218.704 38.785 217.674 38.755C216.654 38.735 215.739 38.55 214.929 38.2C214.119 37.84 213.504 37.275 213.084 36.505C212.714 35.805 212.519 35.09 212.499 34.36C212.479 33.63 212.469 32.805 212.469 31.885V17.8H216.069V31.675C216.069 32.325 216.074 32.895 216.084 33.385C216.104 33.875 216.209 34.275 216.399 34.585C216.759 35.185 217.334 35.52 218.124 35.59C218.914 35.66 219.814 35.62 220.824 35.47V38.5ZM209.529 25.135V22.3H220.824V25.135H209.529ZM224.607 19.84V16.525H228.222V19.84H224.607ZM224.607 38.5V22.3H228.222V38.5H224.607ZM239.87 38.95C238.25 38.95 236.835 38.585 235.625 37.855C234.415 37.125 233.475 36.12 232.805 34.84C232.145 33.55 231.815 32.07 231.815 30.4C231.815 28.7 232.155 27.21 232.835 25.93C233.515 24.65 234.46 23.65 235.67 22.93C236.88 22.21 238.28 21.85 239.87 21.85C241.5 21.85 242.92 22.215 244.13 22.945C245.34 23.675 246.28 24.685 246.95 25.975C247.62 27.255 247.955 28.73 247.955 30.4C247.955 32.08 247.615 33.565 246.935 34.855C246.265 36.135 245.325 37.14 244.115 37.87C242.905 38.59 241.49 38.95 239.87 38.95ZM239.87 35.56C241.31 35.56 242.38 35.08 243.08 34.12C243.78 33.16 244.13 31.92 244.13 30.4C244.13 28.83 243.775 27.58 243.065 26.65C242.355 25.71 241.29 25.24 239.87 25.24C238.9 25.24 238.1 25.46 237.47 25.9C236.85 26.33 236.39 26.935 236.09 27.715C235.79 28.485 235.64 29.38 235.64 30.4C235.64 31.97 235.995 33.225 236.705 34.165C237.425 35.095 238.48 35.56 239.87 35.56ZM262.465 38.5V30.7C262.465 30.19 262.43 29.625 262.36 29.005C262.29 28.385 262.125 27.79 261.865 27.22C261.615 26.64 261.235 26.165 260.725 25.795C260.225 25.425 259.545 25.24 258.685 25.24C258.225 25.24 257.77 25.315 257.32 25.465C256.87 25.615 256.46 25.875 256.09 26.245C255.73 26.605 255.44 27.105 255.22 27.745C255 28.375 254.89 29.185 254.89 30.175L252.745 29.26C252.745 27.88 253.01 26.63 253.54 25.51C254.08 24.39 254.87 23.5 255.91 22.84C256.95 22.17 258.23 21.835 259.75 21.835C260.95 21.835 261.94 22.035 262.72 22.435C263.5 22.835 264.12 23.345 264.58 23.965C265.04 24.585 265.38 25.245 265.6 25.945C265.82 26.645 265.96 27.31 266.02 27.94C266.09 28.56 266.125 29.065 266.125 29.455V38.5H262.465ZM251.23 38.5V22.3H254.455V27.325H254.89V38.5H251.23ZM276.295 38.95C274.295 38.95 272.67 38.5 271.42 37.6C270.17 36.7 269.41 35.435 269.14 33.805L272.83 33.235C273.02 34.035 273.44 34.665 274.09 35.125C274.74 35.585 275.56 35.815 276.55 35.815C277.42 35.815 278.09 35.645 278.56 35.305C279.04 34.955 279.28 34.48 279.28 33.88C279.28 33.51 279.19 33.215 279.01 32.995C278.84 32.765 278.46 32.545 277.87 32.335C277.28 32.125 276.375 31.86 275.155 31.54C273.795 31.18 272.715 30.795 271.915 30.385C271.115 29.965 270.54 29.47 270.19 28.9C269.84 28.33 269.665 27.64 269.665 26.83C269.665 25.82 269.93 24.94 270.46 24.19C270.99 23.44 271.73 22.865 272.68 22.465C273.63 22.055 274.75 21.85 276.04 21.85C277.3 21.85 278.415 22.045 279.385 22.435C280.365 22.825 281.155 23.38 281.755 24.1C282.355 24.82 282.725 25.665 282.865 26.635L279.175 27.295C279.085 26.605 278.77 26.06 278.23 25.66C277.7 25.26 276.99 25.035 276.1 24.985C275.25 24.935 274.565 25.065 274.045 25.375C273.525 25.675 273.265 26.1 273.265 26.65C273.265 26.96 273.37 27.225 273.58 27.445C273.79 27.665 274.21 27.885 274.84 28.105C275.48 28.325 276.43 28.595 277.69 28.915C278.98 29.245 280.01 29.625 280.78 30.055C281.56 30.475 282.12 30.98 282.46 31.57C282.81 32.16 282.985 32.875 282.985 33.715C282.985 35.345 282.39 36.625 281.2 37.555C280.02 38.485 278.385 38.95 276.295 38.95Z" fill="#191D23"/>
<defs>
<linearGradient id="paint0_linear_23_331" x1="69.2692" y1="9.45193" x2="-25.2151" y2="16.4505" gradientUnits="userSpaceOnUse">
<stop offset="0.100157" stop-color="#059669"/>
<stop offset="0.707994" stop-color="#00D090"/>
</linearGradient>
<linearGradient id="paint1_linear_23_331" x1="55.1784" y1="49.7712" x2="-8.85405" y2="48.9273" gradientUnits="userSpaceOnUse">
<stop offset="0.116616" stop-color="#1D4ED8"/>
<stop offset="0.931232" stop-color="#5AD7FE"/>
</linearGradient>
</defs>
</svg>
