<svg width="24" height="24" viewBox="0 0 24 24" fill="none" xmlns="http://www.w3.org/2000/svg">
<g clip-path="url(#clip0_23_346)">
<path d="M7.33335 11L6.66669 13.0667H8.00002L7.33335 11Z" fill="#64748B"/>
<path d="M20.2 1.59997H11.5333C10.4288 1.59997 9.53332 2.4954 9.53332 3.59997V6.26664H12.2H3.53333C2.39999 6.26664 1.53333 7.1333 1.53333 8.26664V15.6C1.53333 16.7333 2.39999 17.6 3.53333 17.6H4.19999V21L8.39999 17.6H10.8667C11.9712 17.6 12.8667 16.7045 12.8667 15.6V12.9333H20.2C21.3333 12.9333 22.2 12.0666 22.2 10.9333V3.59997C22.2 2.46664 21.3333 1.59997 20.2 1.59997ZM8.73333 14.8666L8.39999 13.8H6.33332L5.93332 14.8666H4.33332L6.53332 8.9333H8.13332L10.3333 14.8666H8.73333ZM18.8667 9.59997V10.9333C18 10.9333 17.0667 10.6666 16.2667 10.2666C15.4667 10.6666 14.5333 10.8666 13.6 10.9333L13.5333 9.59997C14 9.59997 14.4667 9.5333 14.9333 9.39997C14.3333 8.79997 13.9333 8.06664 13.7333 7.26664H15.1333C15.3333 7.86664 15.7333 8.3333 16.2 8.7333C16.9333 8.1333 17.4 7.26664 17.4667 6.26664H13.4667V4.9333H15.4667V3.59997H16.8V4.9333H19L19.0667 5.59997C19.1333 6.99997 18.6 8.39997 17.6 9.39997C18.0667 9.5333 18.4667 9.59997 18.8667 9.59997Z" fill="#64748B"/>
</g>
<defs>
<clipPath id="clip0_23_346">
<rect width="24" height="24" fill="white"/>
</clipPath>
</defs>
</svg>
