<svg width="23" height="23" viewBox="0 0 23 23" fill="none" xmlns="http://www.w3.org/2000/svg">
<path d="M10.6067 4.44422C10.9455 3.40157 12.4206 3.40157 12.7594 4.44422L13.9698 8.16956C14.1213 8.63585 14.5558 8.95155 15.0461 8.95155H18.9632C20.0595 8.95155 20.5153 10.3544 19.6284 10.9988L16.4594 13.3012C16.0628 13.5894 15.8968 14.1002 16.0483 14.5665L17.2587 18.2918C17.5975 19.3345 16.4041 20.2015 15.5172 19.5571L12.3482 17.2547C11.9516 16.9666 11.4145 16.9666 11.0178 17.2547L7.84888 19.5571C6.96194 20.2015 5.76858 19.3345 6.10736 18.2918L7.3178 14.5665C7.46931 14.1002 7.30333 13.5894 6.90668 13.3012L3.73772 10.9988C2.85079 10.3544 3.30661 8.95155 4.40292 8.95155H8.31997C8.81026 8.95155 9.24478 8.63585 9.39629 8.16956L10.6067 4.44422Z" fill="#D4D4D8"/>
</svg>
